<?xml version="1.0" standalone="no"?>
<!DOCTYPE svg PUBLIC "-//W3C//DTD SVG 20010904//EN"
 "http://www.w3.org/TR/2001/REC-SVG-20010904/DTD/svg10.dtd">
<svg version="1.0" xmlns="http://www.w3.org/2000/svg"
 width="3120.000000pt" height="3120.000000pt" viewBox="0 0 3120.000000 3120.000000"
 preserveAspectRatio="xMidYMid meet">
<metadata>
Created by potrace 1.16, written by Peter Selinger 2001-2019
</metadata>
<g transform="translate(0.000000,3120.000000) scale(0.100000,-0.100000)"
fill="#000000" stroke="none">
<path d="M20520 23645 c-30 -8 -62 -12 -70 -10 -8 3 -22 0 -30 -6 -12 -8 -9
-9 10 -4 14 3 -5 -9 -42 -28 -36 -19 -80 -44 -97 -56 -17 -12 -35 -20 -40 -17
-5 3 -15 -2 -22 -12 -13 -16 -12 -16 6 -2 20 15 20 15 1 -8 -11 -12 -25 -21
-32 -18 -20 8 -170 -157 -158 -175 3 -5 0 -17 -5 -27 -15 -28 -30 -103 -20
-96 8 5 13 -9 10 -29 -1 -9 59 -47 74 -47 6 1 -7 10 -27 21 -21 11 -38 22 -38
24 0 3 12 -1 28 -9 47 -24 103 -35 242 -46 74 -6 187 -20 250 -31 63 -11 142
-24 174 -30 72 -12 107 -5 149 29 29 24 30 24 12 3 -11 -13 -33 -30 -50 -37
-21 -9 -24 -13 -11 -14 21 0 106 80 106 101 0 8 -6 5 -15 -7 -13 -17 -13 -16
-3 13 7 18 15 28 18 24 3 -5 4 34 2 87 -2 88 -10 145 -28 198 -5 16 -4 16 5 4
18 -25 12 -2 -10 43 -23 46 -67 97 -83 97 -6 1 -24 12 -41 26 -31 27 -16 23
20 -5 18 -14 18 -13 -1 8 -12 12 -32 24 -45 26 -13 1 -44 8 -69 14 -58 14
-102 13 -170 -4z"/>
<path d="M25030 23180 l65 -7 -55 -1 c-85 -3 -309 -30 -428 -51 -249 -45 -538
-127 -777 -221 -147 -58 -178 -68 -155 -50 13 10 13 11 0 7 -8 -2 -15 -9 -15
-16 0 -7 -21 -21 -47 -31 -26 -10 -62 -27 -80 -38 -18 -11 -107 -58 -198 -104
-196 -100 -410 -225 -417 -245 -3 -8 -2 -18 3 -22 5 -3 29 -39 53 -78 24 -40
46 -73 49 -73 3 0 53 29 111 64 132 79 353 199 429 233 31 14 84 38 117 53
329 153 729 272 1090 324 340 50 788 30 1117 -48 199 -48 505 -155 501 -175
-2 -6 5 -7 14 -4 11 4 14 3 9 -5 -4 -8 -2 -10 7 -6 21 8 180 -74 171 -88 -4
-7 -3 -8 5 -4 11 7 115 -46 156 -79 11 -9 14 -13 6 -9 -9 5 -12 3 -7 -5 4 -6
12 -9 17 -5 10 6 119 -60 119 -72 0 -3 -19 8 -42 24 -52 35 -77 49 -63 35 20
-19 117 -84 110 -74 -11 19 9 12 35 -12 14 -12 19 -17 10 -12 -13 9 -13 8 -2
-7 8 -9 19 -15 25 -13 7 3 30 -11 52 -31 l40 -36 -45 32 -45 32 39 -35 c22
-19 45 -33 51 -31 6 3 33 -17 61 -43 28 -27 36 -37 20 -23 -61 50 -71 54 -21
9 27 -26 54 -45 58 -42 5 3 35 -20 67 -51 32 -31 56 -56 52 -56 -3 0 -31 24
-62 53 l-55 52 50 -53 c28 -29 65 -60 83 -69 18 -9 30 -18 28 -21 -3 -3 -14 1
-23 9 -10 7 19 -25 64 -71 144 -151 357 -414 421 -522 9 -16 22 -28 29 -28 7
0 10 -6 8 -12 -3 -7 5 -24 16 -38 11 -14 17 -19 13 -11 -5 9 -3 12 5 7 6 -4 9
-11 6 -16 -9 -14 15 -51 27 -44 6 4 8 3 4 -4 -9 -14 64 -133 77 -125 5 3 7 1
3 -5 -9 -15 14 -62 31 -62 8 0 11 -4 8 -10 -6 -9 30 -90 40 -90 3 0 -4 18 -15
40 -11 22 -18 40 -15 40 2 0 16 -23 31 -51 14 -28 20 -48 14 -44 -6 3 6 -27
27 -69 20 -41 40 -73 44 -70 12 7 31 -35 25 -52 -4 -10 -2 -12 6 -8 8 5 9 2 5
-10 -4 -9 -3 -14 2 -11 5 3 12 1 16 -5 3 -5 1 -10 -4 -10 -6 0 -11 -4 -11 -10
0 -5 6 -10 13 -10 7 0 21 -16 30 -35 20 -41 21 -49 7 -40 -6 3 -7 -1 -4 -9 3
-9 10 -14 14 -11 9 6 84 -164 76 -173 -3 -3 -6 1 -6 8 0 7 -2 11 -5 8 -8 -8 6
-39 15 -33 4 3 15 -13 24 -35 18 -46 20 -62 5 -40 -8 11 -9 9 -3 -10 10 -37
26 -62 20 -30 -5 21 -4 20 8 -5 7 -16 17 -41 20 -55 6 -20 5 -22 -4 -10 -10
13 -11 12 -6 -3 3 -10 6 -21 6 -23 0 -3 4 -3 10 1 19 12 222 -691 219 -760 -1
-17 -2 -16 -9 5 -6 20 -8 21 -8 5 0 -11 4 -33 8 -50 7 -28 8 -29 10 -5 7 82
91 -477 107 -712 4 -58 2 -78 -7 -78 -10 0 -11 -20 -7 -82 4 -46 8 -103 9
-128 1 -39 2 -37 8 20 4 38 6 -25 6 -150 0 -209 0 -210 -6 -65 l-6 150 -2
-135 c-1 -74 -5 -172 -9 -217 -4 -62 -3 -83 6 -83 36 0 -45 -642 -134 -1065
-52 -245 -77 -345 -85 -340 -9 6 -23 -25 -15 -33 3 -3 5 1 5 8 0 7 2 11 5 8 3
-3 1 -27 -6 -53 -7 -27 -15 -42 -19 -35 -5 8 -10 2 -14 -15 -4 -15 -5 -30 -1
-33 3 -3 5 3 5 13 0 10 3 16 6 12 3 -3 -9 -56 -26 -117 -18 -61 -36 -106 -40
-100 -4 6 -12 -8 -19 -31 -7 -22 -10 -43 -8 -46 3 -2 8 10 12 27 4 17 9 29 12
27 2 -3 -6 -37 -18 -76 -14 -45 -26 -66 -31 -58 -5 8 -8 9 -8 0 0 -6 -3 -20
-6 -30 -5 -15 -4 -15 5 -3 15 22 13 -2 -4 -41 -8 -19 -15 -27 -15 -19 -1 8 -8
-3 -16 -24 -8 -22 -12 -42 -9 -44 3 -3 5 1 5 8 0 7 3 11 6 8 10 -10 -48 -158
-59 -151 -6 3 -7 1 -3 -6 9 -14 -23 -113 -34 -106 -4 3 -6 -5 -2 -17 3 -14 1
-19 -6 -14 -6 3 -14 1 -18 -5 -3 -6 -1 -15 6 -19 7 -4 9 -13 5 -20 -6 -9 -10
-9 -17 1 -7 10 -8 9 -4 -5 8 -22 -32 -129 -44 -121 -9 6 -23 -25 -15 -33 3 -3
5 1 5 8 0 7 2 11 5 8 8 -8 -26 -89 -35 -83 -4 2 -12 -7 -19 -21 -16 -35 -13
-44 5 -14 20 33 14 12 -26 -82 -18 -43 -39 -78 -46 -78 -16 0 -19 -17 -3 -22
6 -2 1 -20 -14 -46 -13 -23 -27 -39 -31 -35 -4 4 -4 0 -1 -9 4 -9 2 -25 -4
-35 -8 -14 -11 -15 -11 -3 0 9 -6 5 -15 -10 -19 -33 -19 -49 0 -24 12 15 12
11 -1 -18 -10 -20 -21 -35 -25 -33 -4 3 -10 -2 -13 -11 -3 -8 -2 -12 4 -9 6 3
10 3 10 -2 -1 -13 -69 -139 -70 -129 0 12 -29 -25 -30 -38 0 -6 7 -1 15 10 14
18 15 18 6 -6 -5 -14 -14 -24 -20 -23 -6 2 -8 -4 -4 -13 3 -8 2 -14 -3 -13
-21 4 -28 -2 -14 -11 13 -8 12 -10 -2 -10 -10 0 -18 -5 -18 -11 0 -5 5 -7 11
-3 7 4 7 -2 -1 -17 -16 -31 -25 -39 -17 -16 16 43 -11 2 -47 -72 -29 -58 -47
-83 -65 -90 -14 -5 -20 -10 -13 -10 7 -1 22 4 33 9 10 6 19 7 19 2 0 -4 -33
-18 -72 -31 -40 -13 -106 -41 -147 -62 -40 -22 -76 -37 -79 -35 -4 5 -92 -53
-92 -61 0 -5 15 4 60 35 l35 24 -30 -26 c-16 -15 -45 -35 -64 -44 -19 -9 -50
-37 -70 -62 -24 -30 -28 -38 -12 -25 l24 20 -23 -32 c-24 -33 -37 -44 -25 -20
4 6 -3 1 -14 -13 -11 -14 -21 -29 -21 -34 0 -6 7 -1 15 10 8 10 4 -6 -10 -37
-25 -57 -39 -119 -49 -219 -3 -40 -2 -48 4 -30 8 20 9 16 6 -19 -3 -25 -1 -39
3 -33 5 8 12 -2 20 -28 6 -22 9 -46 5 -52 -4 -6 -3 -8 3 -5 6 4 15 -5 22 -19
6 -14 7 -23 2 -20 -5 3 -7 -3 -4 -15 5 -16 8 -18 15 -7 8 10 9 10 5 -2 -2 -8
-9 -15 -16 -15 -6 0 -23 -20 -37 -45 -22 -39 -23 -41 -4 -20 l22 25 -19 -34
c-10 -19 -25 -36 -34 -38 -9 -3 -22 -16 -28 -29 -9 -20 -8 -24 1 -19 7 4 1 -3
-13 -16 -34 -31 -90 -115 -87 -130 2 -7 -9 -13 -25 -14 -23 -2 -28 1 -24 17 3
11 1 16 -6 11 -7 -4 -8 0 -4 12 5 10 2 22 -6 29 -12 9 -68 144 -93 221 -5 16
-4 17 5 5 6 -8 11 -10 11 -5 0 14 -20 43 -20 30 -1 -13 -29 36 -29 50 0 6 6
-1 14 -15 17 -30 20 -21 4 14 -7 14 -15 23 -19 21 -6 -4 -37 60 -69 138 -2 6
1 7 8 3 7 -5 9 -1 5 8 -3 9 -9 14 -13 11 -4 -2 -15 12 -24 31 -20 40 -21 48
-7 39 6 -3 7 1 4 10 -4 9 -9 13 -12 10 -6 -6 -41 58 -194 355 -93 182 -193
364 -268 490 -235 394 -411 661 -649 985 -168 229 -533 679 -681 840 -15 17
-74 82 -131 145 -121 135 -653 669 -819 822 -437 403 -964 828 -1480 1194
-202 144 -546 374 -559 374 -5 0 -11 4 -13 9 -13 34 -1160 711 -1205 711 -7 0
-13 4 -13 9 0 10 -731 379 -945 476 -82 37 -181 82 -220 100 -158 72 -454 195
-471 195 -49 0 21 22 231 73 127 31 241 58 255 61 14 3 102 23 195 46 94 22
415 90 715 150 300 61 598 124 663 140 386 97 546 203 547 361 0 58 -23 124
-59 169 -15 19 -30 43 -34 52 -10 27 -158 140 -246 187 -45 23 -79 47 -76 52
4 5 -1 6 -9 3 -8 -3 -29 2 -46 11 -146 76 -491 162 -763 190 -53 6 -57 8 -40
21 10 7 25 14 35 14 21 0 170 160 164 176 -3 7 3 18 12 26 15 12 16 11 3 -4
-7 -10 -10 -18 -5 -18 5 0 22 23 38 51 16 29 24 49 18 45 -8 -5 -8 2 -1 24 13
35 23 41 15 8 -4 -15 -1 -12 9 7 8 17 14 39 14 50 -1 16 -2 15 -8 -5 -5 -17
-8 -1 -9 45 -2 96 -5 114 -17 112 -5 -1 -9 4 -7 12 2 7 -5 22 -15 33 -19 22
-92 62 -99 55 -2 -2 14 -12 36 -22 21 -10 47 -27 57 -38 14 -15 9 -13 -20 6
-54 36 -148 65 -252 77 -98 11 -409 12 -628 1 -77 -3 -141 -3 -144 2 -2 4 -46
6 -96 5 l-92 -2 95 -5 c82 -5 59 -8 -175 -19 -387 -19 -995 -31 -1635 -32
-895 0 -1180 -34 -1331 -156 l-34 -28 24 27 c13 15 44 36 68 48 49 24 56 33
15 18 -35 -12 -98 -63 -113 -91 -8 -15 -8 -19 0 -14 7 5 9 1 5 -8 -3 -9 -9
-14 -13 -12 -11 7 5 -107 18 -135 11 -23 11 -23 -3 -5 -18 23 -21 14 -5 -15 5
-11 14 -17 19 -14 6 3 7 -1 4 -10 -7 -18 170 -199 249 -253 71 -50 57 -31 -21
26 -37 28 -96 81 -132 118 -62 65 -61 64 20 -12 243 -228 678 -436 1171 -560
148 -37 467 -94 527 -94 36 0 35 -1 -61 -65 -54 -36 -102 -63 -107 -60 -5 3
-12 0 -16 -6 -5 -8 -2 -10 7 -5 8 4 1 -3 -15 -16 -126 -101 -178 -138 -185
-134 -4 3 -23 -11 -42 -32 l-34 -37 40 35 40 35 -35 -38 c-19 -20 -40 -35 -46
-33 -7 3 -22 -7 -35 -22 l-24 -27 30 25 c27 22 27 21 -4 -13 -33 -35 -49 -47
-37 -29 15 24 -1360 412 -1458 412 -29 0 -193 37 -221 50 -25 12 -257 61 -310
65 -22 2 -105 18 -185 35 -242 51 -391 79 -460 85 -36 3 -117 15 -180 26 -228
41 -346 59 -410 63 -114 7 -305 29 -313 36 -4 4 4 22 19 41 l26 34 -32 -34
-32 -33 -108 12 c-60 6 -144 13 -187 15 -169 6 -309 18 -319 26 -6 5 -139 13
-295 19 -156 5 -347 13 -424 18 -166 9 -825 9 -975 -1 -58 -3 -190 -9 -295
-12 -104 -3 -221 -8 -260 -12 l-70 -8 50 -6 50 -6 -52 -1 c-28 -1 -55 3 -58 8
-4 6 -10 8 -14 6 -7 -5 -231 -13 -591 -21 -118 -3 -242 -10 -275 -15 -33 -5
-125 -12 -205 -15 -183 -7 -386 -24 -425 -35 -34 -10 -111 -18 -240 -25 -49
-3 -103 -10 -120 -15 -34 -10 -177 -32 -215 -33 -43 -1 -334 -47 -355 -56 -11
-5 -83 -21 -159 -35 -144 -26 -165 -24 -167 13 0 12 -2 11 -8 -4 -6 -14 -4
-22 7 -26 13 -5 -75 -26 -223 -55 -80 -16 -394 -96 -425 -109 -37 -15 -243
-73 -288 -81 -44 -8 -137 -36 -142 -43 -6 -8 -148 -54 -232 -76 -54 -14 -302
-102 -403 -143 -27 -12 -93 -37 -145 -57 -52 -20 -99 -40 -105 -45 -14 -11
-260 -118 -313 -136 -23 -8 -48 -12 -54 -8 -7 5 -8 3 -3 -6 6 -10 4 -12 -9 -7
-10 4 -15 3 -11 -3 8 -13 -1 -13 -28 1 -20 9 -20 9 -4 -4 23 -19 22 -20 -163
-106 -85 -40 -159 -77 -165 -82 -12 -12 -28 -12 -20 1 3 6 1 10 -4 10 -6 0
-11 -7 -11 -16 0 -10 -5 -14 -16 -10 -9 4 -13 2 -8 -5 4 -7 1 -10 -7 -7 -13 5
-89 -27 -89 -37 0 -3 18 4 40 15 22 11 40 18 40 15 0 -8 -102 -57 -107 -51 -6
6 -83 -31 -83 -39 0 -3 18 4 40 15 77 39 39 12 -62 -46 -204 -115 -464 -282
-716 -460 -35 -24 -67 -42 -72 -39 -5 3 -12 0 -16 -6 -5 -8 -3 -9 7 -4 24 14
-2 -9 -66 -57 -64 -48 -85 -61 -85 -56 0 2 29 26 65 52 36 26 65 50 65 52 0 6
-90 -58 -96 -68 -10 -16 -22 -7 -28 23 -3 19 -10 28 -17 23 -7 -4 -8 -9 -1
-13 10 -6 17 -38 12 -53 -1 -5 -3 -13 -4 -20 -2 -17 -150 -137 -175 -141 -12
-2 -27 -10 -34 -17 -9 -11 -8 -11 8 0 20 15 20 14 1 -8 -20 -23 -42 -31 -30
-9 5 6 -14 -7 -40 -30 -27 -24 -53 -40 -59 -36 -5 3 -7 1 -4 -4 4 -6 0 -16 -8
-23 -8 -7 -13 -16 -10 -20 3 -5 -25 -35 -62 -67 -37 -32 -155 -143 -262 -248
-108 -104 -162 -154 -121 -110 41 44 57 64 36 45 -58 -52 -111 -112 -108 -122
1 -5 -9 -23 -23 -40 -14 -16 -25 -26 -25 -22 0 4 10 19 23 33 l22 26 -27 -24
c-16 -14 -28 -30 -28 -37 0 -6 -8 -18 -17 -25 -16 -12 -17 -12 -8 1 13 21 -29
-26 -84 -92 -32 -37 -36 -46 -15 -28 16 14 0 -4 -36 -40 -61 -60 -205 -240
-181 -225 26 15 6 -21 -65 -119 -70 -97 -121 -156 -100 -116 12 24 -30 -30
-49 -63 -10 -17 -13 -27 -7 -23 30 18 -154 -281 -186 -302 -25 -16 -66 -88
-58 -100 3 -5 -11 -35 -30 -68 -20 -32 -33 -51 -30 -42 3 11 1 15 -8 12 -7 -3
-13 -10 -13 -17 0 -7 -4 -21 -9 -31 -5 -14 -4 -17 4 -12 9 6 9 1 1 -18 -7 -14
-16 -23 -20 -20 -5 2 -22 -22 -39 -55 -33 -66 -38 -85 -15 -55 12 15 12 11 -1
-18 -10 -20 -22 -36 -27 -35 -5 1 -12 -4 -15 -12 -3 -9 0 -11 7 -6 8 4 7 -5
-3 -29 -19 -46 -35 -74 -35 -61 0 6 6 21 14 35 8 14 14 30 14 35 0 6 -8 -6
-19 -25 -10 -19 -17 -43 -14 -53 5 -16 -101 -294 -116 -307 -8 -7 -72 -181
-127 -345 -23 -71 -41 -116 -38 -100 7 38 -9 13 -19 -30 -5 -22 -4 -26 4 -15
14 21 12 9 -7 -60 -9 -33 -19 -57 -23 -55 -4 3 -10 -4 -13 -15 -3 -10 0 -21 5
-22 6 -2 5 -20 -5 -48 -8 -25 -23 -80 -33 -123 -12 -52 -20 -73 -24 -61 -5 14
-9 9 -14 -20 -4 -21 -5 -41 -2 -44 3 -3 6 5 6 18 0 13 3 21 6 18 3 -4 -8 -75
-25 -160 -32 -161 -63 -359 -81 -518 -5 -52 -15 -138 -21 -190 -18 -163 -23
-810 -8 -1025 8 -104 14 -237 13 -295 -1 -73 1 -91 6 -60 7 42 7 43 9 10 3
-74 62 -450 101 -642 22 -111 38 -203 35 -206 -3 -3 -5 3 -5 13 0 10 -2 16 -5
13 -3 -3 -2 -20 2 -38 5 -28 8 -31 13 -15 6 15 9 10 14 -22 4 -24 12 -45 17
-49 5 -3 9 -16 9 -30 0 -17 -4 -23 -12 -18 -8 5 -9 2 -5 -10 4 -10 7 -20 7
-22 0 -3 5 -2 11 2 8 5 10 -4 6 -32 -3 -21 -3 -30 0 -19 3 13 22 -38 50 -135
24 -85 64 -216 89 -291 24 -75 42 -144 38 -152 -3 -9 -1 -24 6 -34 10 -16 10
-15 5 5 -4 12 -4 22 -2 22 11 0 59 -149 52 -161 -6 -8 -4 -10 5 -4 10 6 12 3
8 -13 -4 -12 -3 -20 2 -17 9 6 44 -75 35 -83 -3 -3 -5 1 -5 8 0 7 -2 11 -5 8
-8 -8 6 -39 15 -33 12 7 23 -32 14 -46 -4 -7 -3 -9 3 -6 7 4 22 -21 38 -61 35
-87 40 -103 21 -72 -8 14 -15 21 -15 15 0 -14 28 -62 29 -50 1 12 39 -56 39
-70 0 -5 -6 1 -14 15 -17 30 -20 21 -4 -14 7 -14 15 -23 19 -21 11 7 63 -112
55 -125 -6 -9 -4 -11 5 -5 10 6 12 4 7 -9 -4 -9 -3 -15 2 -12 4 3 13 -6 20
-20 6 -15 7 -23 1 -19 -13 8 -13 -1 1 -26 5 -11 13 -17 18 -15 4 3 28 -38 54
-90 26 -53 43 -93 37 -89 -13 8 -13 -1 1 -26 5 -11 14 -17 19 -14 6 4 7 -1 3
-11 -4 -11 -2 -15 4 -11 6 4 14 0 17 -9 3 -9 2 -12 -5 -9 -6 4 4 -21 21 -54
19 -38 35 -59 42 -55 7 4 8 3 4 -4 -10 -16 12 -54 26 -46 7 4 8 3 4 -4 -6 -11
19 -72 30 -72 2 0 0 9 -6 20 -6 11 -8 20 -6 20 3 0 13 -14 22 -31 11 -21 12
-29 3 -23 -7 4 0 -15 15 -42 55 -95 167 -274 172 -274 3 0 2 5 -2 12 -4 7 -3
8 4 4 6 -4 9 -12 7 -19 -3 -7 5 -23 16 -37 11 -14 18 -19 14 -12 -12 23 3 12
21 -15 17 -27 17 -28 -1 -13 -18 14 -18 14 0 -18 11 -18 30 -45 43 -60 l24
-27 -20 30 c-28 45 -34 55 -29 55 2 0 21 -26 42 -57 21 -32 30 -51 20 -43 -17
14 -18 14 -7 -7 7 -12 17 -25 24 -29 7 -5 8 -3 3 6 -5 9 -4 11 4 6 6 -4 9 -12
6 -17 -6 -8 131 -209 142 -209 2 0 1 6 -3 13 -5 8 -2 8 9 -2 18 -15 23 -26 7
-16 -25 16 -6 -17 23 -39 18 -14 43 -40 55 -58 20 -29 18 -28 -13 7 l-37 40
33 -47 c18 -27 42 -56 53 -65 21 -18 21 -18 2 5 -11 12 -17 22 -13 22 3 0 20
-19 38 -42 25 -33 27 -38 9 -23 -28 23 51 -80 107 -141 21 -22 29 -29 18 -15
l-20 26 27 -24 c15 -13 25 -28 22 -35 -6 -16 10 -37 32 -40 10 -2 18 -9 16
-16 -1 -6 29 -47 68 -91 38 -44 70 -76 70 -72 0 4 -15 23 -32 43 l-33 35 37
-34 c21 -19 38 -41 38 -49 0 -7 3 -12 8 -10 4 2 38 -30 77 -72 l70 -75 -70 65
c-39 36 18 -23 126 -130 107 -107 137 -139 65 -70 l-131 125 129 -132 c71 -73
133 -130 138 -127 4 3 49 -34 100 -82 51 -48 119 -109 151 -136 32 -26 54 -48
50 -48 -4 0 -28 19 -53 40 -25 22 -67 59 -95 81 l-50 41 45 -42 c88 -81 147
-130 158 -130 6 0 14 -5 18 -12 5 -7 2 -8 -7 -3 -8 4 4 -8 25 -26 22 -19 45
-34 50 -34 12 0 256 -194 256 -202 0 -5 -27 16 -175 136 -44 36 -74 57 -66 48
23 -29 233 -192 242 -189 9 2 199 -136 199 -145 0 -3 -8 1 -18 8 -15 13 -16
12 -4 -3 8 -9 19 -15 25 -12 7 2 26 -8 42 -22 17 -14 23 -22 15 -18 -9 4 -12
3 -7 -2 5 -5 14 -9 20 -9 17 0 373 -241 380 -257 5 -13 67 -54 67 -45 0 3 -15
15 -33 27 -67 45 -6 12 136 -73 81 -49 145 -93 142 -97 -3 -4 2 -11 11 -14 9
-3 12 -2 9 5 -4 6 16 -1 44 -15 28 -15 51 -29 51 -31 0 -3 -18 4 -40 15 -22
11 -40 18 -40 15 0 -8 77 -45 83 -39 10 10 128 -56 121 -68 -4 -7 -3 -8 4 -4
13 8 363 -165 356 -176 -3 -4 2 -5 10 -2 8 3 29 -2 48 -12 18 -10 125 -57 238
-106 113 -48 204 -93 202 -99 -1 -6 5 -8 16 -5 23 8 128 -30 124 -44 -1 -6 2
-9 8 -5 6 4 81 -18 168 -48 86 -30 171 -59 187 -65 17 -5 29 -14 28 -19 -2
-10 105 -48 113 -40 3 2 -16 10 -41 17 -25 7 -44 15 -41 17 2 2 73 -17 158
-42 581 -177 1256 -303 1918 -360 102 -9 248 -27 325 -40 238 -41 595 -86 792
-101 72 -5 96 -4 110 7 16 13 17 12 4 -3 -10 -14 -28 -18 -74 -18 -73 0 -72
-8 0 -11 29 -1 50 -6 47 -11 -3 -5 -10 -5 -16 -2 -8 5 -9 1 -5 -10 4 -10 3
-15 -3 -11 -5 3 -21 -17 -35 -46 -15 -28 -22 -48 -16 -44 6 3 11 3 11 -2 -1
-13 -29 -59 -30 -48 0 13 -20 -16 -20 -30 0 -5 5 -3 10 5 12 17 4 -27 -12 -70
-19 -50 -22 -221 -4 -288 19 -74 19 -82 5 -62 -8 11 -9 9 -3 -10 9 -35 27 -63
19 -30 -5 19 -4 22 4 10 16 -22 13 -30 -11 -41 -21 -9 -21 -9 5 -5 16 2 25 0
20 -5 -4 -4 -71 -17 -148 -28 -497 -73 -912 -47 -1409 89 -218 60 -344 106
-768 278 -20 8 -36 19 -35 25 1 5 -4 12 -12 15 -8 3 -11 0 -7 -7 4 -6 0 -11
-9 -11 -11 0 -15 5 -12 14 4 9 1 13 -7 10 -6 -2 -77 24 -157 59 -79 35 -165
72 -191 83 -25 10 -44 22 -42 26 2 3 -1 10 -7 14 -6 3 -15 1 -19 -6 -4 -7 -13
-9 -20 -5 -9 6 -9 10 1 17 10 7 9 8 -5 4 -10 -4 -42 0 -70 8 -96 27 -128 28
-170 7 l-38 -20 18 22 c18 20 18 21 1 8 -28 -22 -47 -66 -46 -103 2 -33 2 -33
10 7 7 33 7 30 4 -20 -2 -33 -1 -55 3 -49 4 7 16 -9 29 -37 26 -58 22 -65 -6
-12 -11 21 -20 34 -21 30 -1 -17 41 -87 50 -82 5 3 12 0 16 -6 4 -8 3 -9 -4
-5 -18 11 -14 -10 5 -25 15 -12 16 -12 8 1 -5 9 -4 12 1 7 5 -5 9 -14 9 -21 0
-14 60 -86 72 -86 5 0 36 -26 69 -58 33 -31 44 -43 25 -27 -74 63 -85 68 -26
14 33 -31 65 -55 71 -52 5 2 19 -7 30 -19 l19 -23 -25 20 -25 20 19 -22 c10
-13 22 -20 27 -18 4 3 56 -28 116 -68 59 -41 129 -86 156 -101 26 -16 44 -33
40 -38 -3 -6 -1 -8 4 -5 13 8 360 -159 386 -185 10 -10 23 -18 30 -18 7 0 6 4
-3 10 -27 18 0 10 88 -24 86 -34 335 -114 421 -136 34 -9 41 -14 30 -22 -10
-7 -5 -8 18 -4 18 3 86 -5 150 -18 238 -49 467 -71 818 -79 94 -2 136 -1 95 2
l-75 6 115 7 c137 9 294 31 448 64 62 13 125 22 140 18 19 -4 23 -3 13 4 -9 7
7 15 60 31 41 12 128 42 194 67 66 26 131 47 145 47 14 0 72 -5 130 -13 137
-17 288 -8 405 24 50 13 101 27 115 31 20 5 22 5 10 -5 -13 -10 -12 -11 3 -6
10 3 21 6 23 6 3 0 2 4 -1 10 -7 11 92 63 105 55 5 -3 12 0 16 6 5 8 3 9 -6 4
-9 -6 -11 -4 -6 4 5 7 14 10 22 7 7 -3 16 0 20 6 5 7 2 8 -7 3 -12 -8 -12 -6
0 8 16 20 36 23 25 5 -5 -9 -2 -9 9 1 20 16 23 26 5 15 -9 -5 -9 -2 1 9 16 20
36 23 25 5 -4 -7 9 3 29 21 21 19 37 40 37 46 0 6 15 24 33 41 l32 29 -27 -31
c-16 -16 -28 -34 -28 -38 0 -10 88 97 127 154 33 49 83 145 83 157 -1 4 -14
-18 -31 -49 -40 -79 -46 -73 -7 6 17 36 35 63 39 60 8 -5 22 27 14 34 -3 3 -5
-1 -5 -8 0 -7 -2 -11 -5 -8 -3 3 -1 18 6 34 36 95 63 381 46 489 -4 28 -4 45
0 39 6 -9 11 -8 20 1 10 11 8 14 -9 17 -12 2 -23 10 -25 18 -4 13 -3 13 5 1
11 -16 14 -16 252 43 58 14 142 35 188 46 45 10 97 26 115 34 47 22 208 77
238 82 32 4 166 57 218 84 89 49 215 100 225 91 10 -8 44 -16 231 -57 44 -9
82 -20 85 -24 6 -8 115 -32 155 -35 42 -2 146 -25 168 -36 9 -5 52 -14 95 -20
91 -13 199 -33 262 -49 25 -6 70 -13 100 -15 89 -7 152 -16 205 -31 28 -8 94
-16 148 -19 54 -3 132 -12 175 -20 42 -8 95 -16 117 -17 36 -1 34 -2 -15 -8
l-55 -7 51 -1 c27 -1 55 3 61 9 9 9 39 8 120 -2 59 -7 169 -14 243 -16 74 -1
162 -6 195 -11 117 -17 1161 -2 1235 18 19 5 102 12 184 15 81 3 156 9 165 14
19 10 112 21 222 27 42 2 98 9 125 15 106 22 211 40 244 40 38 1 116 15 285
52 61 14 113 23 117 21 3 -2 37 3 74 12 37 8 76 13 86 11 10 -3 16 -2 13 3 -3
4 2 10 10 13 27 11 190 48 231 53 23 2 70 13 105 24 35 11 109 33 164 50 55
16 118 33 140 35 39 6 202 56 240 75 41 20 168 59 176 55 4 -3 5 -13 2 -22 -6
-15 -5 -16 9 -3 10 10 12 16 5 19 -6 2 29 18 79 36 49 18 122 47 163 64 40 17
79 31 86 31 8 0 30 9 50 21 26 16 39 18 49 10 9 -8 22 -8 45 0 18 6 30 13 28
15 -2 3 -17 0 -32 -6 -15 -6 -30 -9 -32 -7 -2 2 25 14 59 27 35 12 83 33 107
46 24 13 87 43 140 66 53 22 102 46 109 51 8 6 17 5 26 -2 12 -10 21 -9 43 4
26 15 21 15 -24 -1 -10 -3 81 44 202 106 121 61 224 116 229 120 5 5 15 6 23
3 12 -5 12 -7 1 -15 -10 -8 -10 -9 2 -5 8 2 14 10 13 16 -3 10 126 82 144 81
5 -1 -13 -12 -39 -26 -27 -13 -48 -27 -48 -29 0 -3 18 4 41 15 46 24 56 21 40
-8 -6 -12 -11 -24 -11 -29 1 -4 8 4 16 20 8 15 12 32 9 37 -3 6 8 23 25 38 46
42 290 174 312 169 10 -3 16 -1 13 3 -8 12 33 33 47 24 7 -4 8 -3 4 4 -4 7 10
20 36 33 24 12 70 41 103 64 33 23 76 51 95 61 19 11 68 41 108 67 40 25 82
46 95 45 12 -1 34 6 50 16 40 27 33 31 -8 6 -19 -12 -35 -19 -35 -17 0 11 70
48 79 43 5 -4 13 -1 17 5 4 8 3 9 -4 5 -7 -4 -12 -5 -12 -3 0 6 108 77 117 77
5 0 -5 -9 -22 -20 -16 -11 -24 -20 -17 -20 7 0 10 -4 7 -10 -3 -5 -1 -10 4
-10 10 0 13 7 10 26 0 4 5 10 13 15 7 5 13 12 13 17 0 5 7 15 15 23 21 22 288
199 298 199 5 0 21 9 36 21 14 11 30 18 35 14 5 -3 13 0 17 6 5 8 3 9 -7 4
-12 -8 -12 -6 0 8 15 19 36 23 25 5 -4 -7 -3 -8 4 -4 7 4 12 13 12 19 0 15 38
40 50 32 5 -3 12 0 16 6 5 8 2 10 -7 5 -8 -4 -1 3 15 16 16 13 49 40 74 61 25
21 57 46 71 55 14 9 68 49 120 89 87 67 133 91 115 61 -4 -7 2 -4 14 6 26 23
30 34 5 15 -16 -13 -17 -12 -4 4 8 10 20 16 27 13 7 -3 18 3 26 12 12 16 11
16 -7 2 -19 -14 -19 -14 -6 3 8 10 20 16 27 13 7 -3 18 3 26 12 12 16 11 16
-7 2 -42 -30 6 14 74 69 38 31 104 85 146 121 l78 65 136 1 c214 1 483 13 516
24 17 5 77 12 135 15 150 7 240 17 240 24 0 7 152 32 215 36 43 3 158 27 170
35 6 4 62 19 125 34 134 32 281 75 295 86 11 9 193 82 263 106 23 8 48 12 54
8 7 -5 8 -3 3 6 -6 10 -4 12 9 7 10 -4 15 -3 11 3 -4 6 19 22 49 36 31 14 58
29 61 34 3 5 43 31 88 59 45 27 113 72 151 100 67 50 95 63 80 39 -4 -7 13 6
39 27 45 38 65 61 30 34 -10 -7 25 31 77 84 84 86 123 122 91 84 -6 -8 -7 -18
-3 -22 4 -5 1 -5 -7 0 -10 6 -12 4 -6 -5 5 -8 4 -11 -2 -7 -5 3 -36 -22 -69
-56 l-59 -62 61 58 c33 32 63 55 66 52 3 -3 11 1 18 10 7 8 9 15 6 15 -4 0 3
15 15 33 20 28 21 30 4 17 -18 -13 1 12 74 97 13 15 19 21 15 13 -5 -9 1 -4
14 10 13 14 28 34 33 45 6 11 -1 7 -16 -10 l-26 -30 27 43 c15 23 29 42 31 42
2 0 1 -6 -3 -12 -5 -9 -2 -8 10 1 9 8 13 17 7 20 -5 4 -3 14 6 26 13 16 15 17
10 3 -13 -37 2 -16 38 53 20 39 32 68 26 64 -6 -3 1 20 15 52 15 32 41 98 59
146 17 49 38 92 45 97 7 4 10 12 6 18 -3 5 5 59 19 118 29 133 55 322 55 412
0 37 4 62 8 55 4 -6 7 35 7 92 0 57 -3 98 -7 92 -4 -7 -8 20 -8 58 0 91 -24
292 -55 473 -14 79 -22 155 -19 170 4 20 3 23 -5 13 -8 -12 -11 -9 -16 15 -4
16 -20 77 -35 137 -16 59 -26 108 -24 108 2 1 8 2 14 3 15 2 42 45 35 56 -3 5
6 17 20 26 14 9 24 23 21 30 -3 7 0 16 6 20 7 4 8 3 4 -4 -4 -7 -5 -12 -2 -12
6 0 66 86 66 95 0 3 -5 3 -12 -1 -7 -4 -8 -3 -4 5 4 6 11 9 15 6 5 -2 25 20
45 50 38 58 43 71 24 59 -7 -5 -8 -3 -4 5 5 7 14 10 21 7 15 -5 30 27 20 43
-3 5 0 13 6 17 8 5 9 3 4 -6 -5 -9 -4 -11 4 -6 6 4 10 15 9 24 -2 9 2 17 9 17
15 0 30 15 15 15 -7 0 -12 5 -12 11 0 6 27 -13 60 -42 33 -28 57 -56 53 -62
-3 -5 -1 -7 4 -4 6 4 37 -9 69 -28 125 -76 251 -108 424 -108 174 0 322 39
460 123 19 12 26 14 15 6 -50 -38 -58 -47 -25 -28 19 11 41 31 47 45 7 13 21
31 30 38 17 13 17 13 1 -7 -38 -44 -15 -32 30 16 46 50 142 195 141 215 0 6
-7 -2 -15 -17 -21 -40 -27 -35 -7 7 9 19 21 31 26 28 6 -3 7 -1 3 5 -4 6 4 44
16 84 33 104 33 306 1 391 -12 31 -17 54 -11 51 18 -12 -20 51 -54 87 -18 19
-24 24 -13 10 11 -14 -10 2 -47 35 -37 34 -95 75 -128 93 -36 19 -58 37 -54
43 4 7 2 8 -4 4 -7 -4 -42 4 -79 17 -70 25 -231 57 -290 57 -18 0 -33 2 -33 5
0 16 52 105 58 101 5 -3 29 38 55 90 49 99 57 121 32 88 -14 -18 -15 -17 -4 8
7 15 15 25 19 23 5 -3 11 2 14 11 3 8 2 12 -4 9 -6 -3 -7 1 -4 9 3 9 9 14 13
11 4 -2 15 12 24 31 23 47 21 57 -3 14 -26 -48 -25 -31 2 24 12 25 25 43 29
40 4 -2 11 1 15 7 5 8 3 9 -5 4 -9 -5 -12 -2 -9 9 1 10 7 16 12 16 10 -2 26
20 26 35 0 6 -5 3 -11 -5 -9 -12 -10 -12 -5 3 3 10 6 21 6 23 0 3 5 2 12 -2 7
-5 8 -3 3 5 -8 14 24 93 35 86 4 -2 12 7 19 21 16 35 13 44 -5 14 -21 -34 -14
-16 46 130 51 124 69 158 56 110 -5 -17 -4 -20 2 -10 5 8 13 26 16 40 6 20 5
22 -4 10 -15 -19 -17 -26 74 223 40 111 86 241 102 289 15 48 31 83 35 77 3
-6 9 0 13 14 3 14 8 33 11 44 3 10 -1 5 -9 -12 -8 -16 -15 -25 -15 -20 -1 18
67 220 69 205 2 -19 19 17 19 40 0 9 -4 8 -9 -5 -14 -32 -11 -3 4 51 8 27 20
68 26 92 6 23 14 41 18 38 5 -3 8 12 8 32 0 20 16 107 37 192 20 85 50 223 66
305 16 83 30 139 31 125 2 -24 3 -23 10 5 4 17 8 41 8 55 0 22 -1 22 -8 -5
-13 -53 -11 5 4 95 8 47 18 108 21 135 6 41 9 46 16 30 6 -14 8 -6 4 25 -7 51
16 341 25 335 4 -2 6 218 6 489 -1 272 2 492 6 490 4 -3 5 2 2 10 -3 9 -9 14
-13 12 -10 -7 -32 259 -26 314 3 32 2 38 -4 20 -7 -22 -9 -19 -15 25 -20 137
-61 354 -89 475 -17 74 -31 149 -32 167 0 17 -3 29 -6 27 -11 -6 -50 156 -43
178 4 13 2 18 -4 14 -11 -7 -58 121 -48 131 3 4 6 0 6 -7 0 -7 2 -11 5 -8 3 2
-1 22 -9 44 -8 21 -15 32 -16 24 0 -8 -7 0 -15 19 -17 39 -19 63 -4 41 9 -12
10 -12 5 3 -3 10 -6 21 -6 23 0 3 -4 3 -9 0 -10 -6 -45 84 -36 92 3 3 5 -1 5
-8 0 -7 2 -11 5 -8 8 7 -6 39 -14 34 -9 -6 -132 291 -136 328 -3 31 -45 129
-52 122 -3 -2 3 -18 11 -35 22 -42 37 -81 31 -81 -3 0 -9 10 -14 23 -5 12 -21
48 -35 80 -15 32 -21 55 -15 51 7 -4 10 -2 7 7 -3 8 -10 13 -16 12 -7 -2 -9 4
-5 14 4 10 2 14 -4 10 -5 -3 -17 11 -27 31 -13 29 -13 33 -1 18 17 -23 20 -14
4 15 -5 11 -14 17 -18 14 -5 -3 -12 2 -15 11 -3 9 -2 12 5 9 6 -4 -6 25 -26
64 -34 68 -51 91 -39 54 5 -15 4 -15 -4 -3 -6 8 -9 17 -6 22 6 9 -52 124 -67
134 -8 5 -9 3 -4 -6 5 -9 4 -11 -4 -6 -6 4 -9 12 -6 17 6 8 -42 99 -52 99 -2
0 -1 -5 3 -12 4 -7 3 -8 -5 -4 -6 4 -9 11 -6 16 9 14 -15 51 -27 44 -7 -4 -8
-3 -4 4 7 11 -60 122 -68 112 -2 -3 -8 -2 -12 3 -4 4 -2 7 4 7 7 0 -13 35 -44
78 -58 78 -84 110 -69 82 8 -13 6 -13 -7 -2 -9 8 -15 19 -12 26 3 7 -3 19 -13
27 -17 13 -17 13 -3 -6 14 -18 14 -19 -2 -7 -9 8 -14 20 -11 28 3 8 -5 17 -21
24 -14 5 -24 15 -21 22 3 7 -14 33 -38 59 -23 25 -33 34 -22 20 l20 -26 -27
24 c-15 13 -25 28 -22 33 3 5 -75 89 -173 186 -99 97 -132 132 -74 77 l106
-100 -104 107 c-57 58 -109 104 -115 102 -6 -2 -40 24 -76 57 -36 34 -48 47
-27 30 21 -17 41 -31 45 -31 3 0 -11 15 -33 33 -22 17 -44 31 -51 29 -6 -1
-19 8 -30 20 l-19 23 25 -20 25 -20 -19 22 c-10 13 -23 20 -27 17 -5 -3 -21 4
-35 15 -15 12 -23 21 -19 21 5 0 18 -8 29 -17 21 -18 21 -18 2 5 -11 12 -27
22 -36 22 -9 0 -57 28 -106 63 -49 35 -131 87 -181 116 -53 30 -90 58 -86 64
3 5 1 7 -4 4 -6 -4 -75 24 -154 62 -424 204 -782 287 -1344 311 -255 11 -310
11 -205 0z m-4540 -1176 c549 -70 1040 -321 1040 -531 0 -60 -69 -124 -185
-172 -135 -55 -299 -94 -905 -216 -598 -121 -1275 -273 -1355 -304 -11 -5 -69
-20 -128 -33 l-108 -26 -67 25 c-37 14 -75 29 -85 34 -43 23 -562 214 -743
275 -56 18 -123 43 -149 54 -37 16 -51 18 -64 9 -9 -6 4 8 29 31 103 97 338
266 513 368 l88 52 152 0 c437 0 876 83 1245 236 106 44 301 143 372 188 55
36 55 36 145 30 50 -3 142 -12 205 -20z m-12631 -689 c-7 -6 -180 -66 -206
-71 -12 -2 -42 -13 -67 -24 -26 -11 -54 -16 -63 -13 -10 4 -14 2 -10 -4 4 -6
-35 -28 -96 -53 -151 -62 -385 -170 -442 -205 -28 -16 -75 -41 -105 -54 -30
-13 -74 -32 -98 -42 -24 -11 -48 -16 -54 -13 -7 4 -8 2 -4 -4 3 -6 -2 -16 -13
-21 -25 -14 -34 -14 -26 -1 4 6 -1 7 -11 3 -10 -4 -13 -8 -7 -10 14 -5 5 -33
-10 -33 -6 0 -65 -30 -131 -66 -65 -37 -129 -67 -142 -68 -12 0 -21 -4 -19 -7
7 -11 -54 -39 -72 -33 -13 4 -14 3 -5 -3 17 -13 15 -14 -140 -111 -81 -51
-130 -76 -136 -70 -11 11 -97 -46 -97 -65 0 -12 -214 -171 -253 -187 -12 -5
-47 -28 -77 -51 -30 -22 -58 -38 -64 -35 -5 3 -7 -3 -4 -14 3 -11 1 -20 -5
-20 -6 0 -48 -30 -94 -66 -77 -61 -179 -126 -122 -77 16 13 20 23 14 38 -8 19
-9 19 -9 -1 -1 -12 -7 -27 -15 -34 -8 -6 -12 -19 -9 -27 5 -12 2 -15 -10 -10
-10 4 -16 2 -14 -6 1 -7 -6 -11 -15 -11 -9 1 -27 -10 -40 -25 l-23 -26 30 24
c45 36 -117 -120 -179 -173 -51 -44 -74 -58 -61 -36 13 21 -2 9 -40 -32 l-40
-43 40 35 c22 19 31 24 20 11 -11 -13 -38 -37 -60 -54 -34 -26 -37 -27 -20 -7
l20 25 -21 -18 c-11 -9 -24 -14 -29 -10 -4 5 -2 -1 4 -12 11 -18 2 -30 -86
-119 -54 -55 -120 -120 -148 -145 -47 -42 -48 -43 -13 -5 21 22 38 43 38 47 0
15 -74 -76 -77 -94 -3 -18 -59 -87 -216 -261 -35 -38 -66 -64 -74 -61 -7 3
-13 -2 -13 -12 0 -10 4 -13 13 -8 16 10 -12 -33 -87 -132 -54 -73 -133 -161
-111 -125 6 9 0 4 -13 -10 -12 -14 -20 -30 -17 -37 2 -7 -1 -15 -7 -19 -7 -5
-8 -2 -3 7 7 11 6 12 -6 2 -8 -6 -22 -26 -33 -45 l-18 -33 27 30 c16 19 11 6
-15 -32 -22 -35 -43 -63 -46 -63 -3 0 4 15 16 33 l22 32 -26 -30 c-14 -16 -24
-36 -21 -42 2 -7 -1 -12 -7 -10 -6 1 -13 -4 -16 -12 -3 -9 0 -11 8 -6 9 5 11
4 6 -4 -4 -6 -12 -8 -18 -5 -7 5 -9 1 -5 -9 3 -9 1 -19 -5 -23 -7 -5 -8 -2 -4
7 4 8 -1 3 -13 -11 -26 -33 -63 -103 -50 -94 6 3 4 -7 -4 -22 -17 -33 -52 -77
-42 -54 4 8 -1 6 -9 -5 -9 -11 -14 -25 -12 -31 3 -7 -2 -20 -10 -31 -14 -17
-14 -16 -4 5 16 33 3 27 -15 -7 -9 -18 -11 -32 -5 -36 5 -3 -6 -33 -24 -68
-19 -34 -68 -125 -110 -202 -42 -77 -76 -146 -76 -154 0 -7 -21 -56 -46 -107
-35 -73 -49 -92 -62 -88 -14 5 -14 4 -3 -4 12 -9 11 -19 -9 -66 -12 -31 -26
-53 -31 -50 -5 3 -9 3 -9 0 0 -2 -3 -13 -6 -23 -5 -15 -4 -16 6 -3 14 18 14
19 -18 -75 -11 -33 -41 -125 -67 -205 -26 -80 -56 -163 -66 -186 -11 -22 -19
-47 -19 -55 0 -11 -2 -12 -9 -1 -6 10 -10 7 -15 -13 -4 -15 -5 -30 -1 -33 3
-3 5 3 5 13 0 10 3 16 6 13 3 -3 -11 -65 -30 -137 -20 -72 -36 -144 -36 -159
0 -30 -16 -96 -30 -127 -16 -35 -40 -148 -44 -215 -3 -36 -12 -92 -21 -124
-25 -94 -54 -315 -61 -454 -3 -69 -10 -147 -16 -172 -5 -25 -13 -209 -16 -410
-4 -212 -9 -331 -13 -285 l-5 80 -2 -87 c-2 -71 1 -86 12 -82 11 4 15 -17 21
-100 4 -58 5 -109 2 -113 -7 -10 26 -300 52 -473 12 -74 24 -164 26 -199 9
-110 113 -610 137 -654 9 -17 71 -243 97 -354 7 -29 9 -58 5 -64 -4 -7 -3 -9
4 -5 7 4 21 -26 39 -81 35 -112 38 -123 24 -103 -12 17 -14 10 -5 -14 3 -9 11
-13 17 -9 6 4 8 -2 5 -15 -4 -12 -2 -20 2 -17 5 3 14 -12 21 -32 6 -21 36
-101 66 -177 29 -76 51 -141 48 -144 -3 -3 -5 1 -5 8 0 7 -2 11 -5 8 -8 -8 6
-39 15 -33 11 7 33 -52 24 -66 -4 -8 -3 -10 4 -5 7 4 12 6 12 4 0 -2 16 -41
35 -86 19 -46 31 -81 26 -78 -5 4 -7 -3 -4 -15 5 -16 8 -18 15 -7 7 9 8 7 5
-10 -3 -12 -1 -20 3 -17 12 8 33 -33 26 -51 -3 -8 -2 -13 2 -10 5 3 16 -12 26
-32 13 -29 13 -33 1 -18 -19 25 -19 13 0 -24 16 -31 29 -41 19 -15 -4 8 -4 15
-1 15 3 0 10 -14 16 -30 6 -19 7 -28 0 -25 -5 4 5 -23 23 -59 17 -36 35 -63
40 -60 4 3 21 -24 38 -58 24 -48 26 -57 10 -38 l-21 25 16 -33 c9 -18 20 -30
24 -27 5 3 12 -2 15 -11 3 -9 2 -12 -5 -9 -6 4 6 -25 26 -64 22 -45 40 -69 47
-65 7 4 8 3 4 -4 -10 -16 12 -54 26 -46 7 4 8 3 4 -4 -10 -16 22 -74 36 -66 7
4 8 3 4 -4 -9 -15 22 -75 34 -67 6 3 8 0 5 -7 -3 -7 5 -24 16 -38 11 -14 18
-19 14 -12 -3 6 -4 12 -1 12 3 0 10 -10 17 -21 8 -15 8 -19 0 -15 -25 16 -9
-16 26 -51 21 -20 32 -34 25 -29 -31 19 14 -54 57 -93 14 -13 20 -20 14 -17
-19 10 -16 0 13 -44 15 -22 30 -37 35 -35 4 3 11 0 15 -6 5 -8 3 -9 -6 -4 -8
5 -11 3 -8 -6 3 -8 10 -14 15 -14 6 0 15 -4 20 -9 5 -5 3 -6 -4 -2 -19 11 -16
-9 4 -25 14 -12 16 -12 8 0 -5 9 -4 12 3 7 6 -4 9 -13 6 -20 -3 -7 5 -24 16
-37 12 -13 18 -18 14 -10 -4 9 -3 12 4 7 6 -4 9 -12 7 -19 -3 -7 5 -23 17 -37
13 -14 19 -19 13 -10 -9 13 -8 13 7 2 9 -8 15 -19 12 -25 -2 -7 6 -23 18 -37
13 -14 19 -19 13 -10 -9 13 -8 13 7 2 9 -8 15 -19 12 -25 -2 -7 10 -28 27 -47
l30 -35 -28 39 c-15 22 -23 37 -18 34 6 -4 26 -28 45 -55 19 -26 26 -41 15
-33 -11 8 -4 -7 15 -33 19 -26 41 -53 49 -60 9 -7 1 7 -18 31 -18 23 -30 42
-27 42 2 0 26 -28 52 -63 28 -35 37 -53 23 -42 l-24 20 19 -25 c11 -14 38 -43
61 -65 22 -22 32 -33 21 -25 -12 9 -6 -3 13 -27 18 -24 35 -43 38 -43 4 0 -2
10 -13 23 l-19 22 22 -18 c12 -11 20 -24 17 -31 -3 -7 8 -23 23 -36 l28 -25
-25 30 -25 30 27 -24 c15 -13 25 -28 22 -35 -2 -6 10 -25 28 -41 l33 -30 -30
35 -30 35 32 -29 c18 -16 30 -33 27 -38 -3 -5 8 -24 25 -44 17 -19 31 -31 31
-27 0 4 -10 19 -22 33 -13 14 7 -6 43 -45 37 -38 65 -75 62 -81 -2 -5 25 -38
60 -72 36 -34 63 -63 61 -65 -2 -1 81 -86 184 -187 l187 -185 -180 185 -180
185 175 -171 c221 -215 309 -298 321 -302 5 -2 9 -9 9 -16 0 -7 15 -25 32 -42
l33 -29 -30 34 c-16 19 29 -15 100 -75 251 -212 520 -419 723 -556 41 -27 71
-52 68 -55 -5 -6 13 -20 87 -68 15 -9 27 -15 27 -12 0 3 -22 19 -50 37 -27 18
-50 34 -50 37 0 3 15 -5 33 -16 17 -12 80 -52 139 -89 59 -37 108 -73 108 -80
0 -7 4 -11 10 -7 5 3 76 -33 157 -81 81 -48 240 -135 353 -192 113 -58 198
-103 190 -100 -376 133 -805 312 -793 331 4 6 1 7 -6 2 -15 -9 -113 34 -105
46 4 8 -67 49 -83 49 -4 -1 9 -10 30 -21 22 -11 37 -22 35 -24 -2 -2 -74 32
-161 76 -99 50 -155 84 -151 91 4 6 3 8 -4 5 -13 -9 -43 2 -37 14 3 4 -12 17
-35 29 -22 11 -40 18 -40 15 0 -2 14 -12 31 -20 17 -9 28 -19 26 -22 -3 -3
-18 4 -34 15 -15 10 -47 29 -71 41 -26 13 -40 26 -36 33 4 7 3 8 -5 4 -18 -12
-575 334 -631 391 -11 12 -12 14 -1 8 10 -6 12 -4 7 4 -4 6 -12 9 -17 5 -9 -5
-219 141 -219 153 0 3 16 -6 35 -21 19 -14 51 -38 70 -52 19 -15 35 -24 35
-21 0 11 -132 102 -145 99 -7 -1 -19 5 -26 15 -12 15 -12 16 1 8 13 -8 13 -7
1 8 -15 19 -26 23 -15 6 4 -7 1 -10 -7 -7 -8 3 -19 15 -25 27 -7 13 -13 18
-16 11 -2 -6 -14 1 -28 17 l-25 28 25 -20 25 -20 -19 23 c-11 12 -25 21 -31
18 -6 -2 -29 13 -51 33 -22 20 -31 29 -19 21 20 -15 20 -15 1 7 -10 13 -23 20
-29 16 -6 -3 -36 21 -66 53 -31 33 -45 46 -31 29 l25 -30 -30 25 c-99 85 -257
228 -236 215 10 -5 12 -4 7 3 -4 7 -13 12 -19 12 -7 0 -78 64 -158 143 -80 78
-127 126 -105 107 22 -19 34 -26 26 -16 -23 30 -60 66 -68 66 -4 0 -41 35 -82
77 l-75 78 80 -75 80 -75 -75 80 c-41 45 -78 79 -82 77 -5 -2 -8 3 -8 12 0 8
-34 45 -77 83 -42 37 -82 82 -89 98 -7 17 -25 44 -41 61 -15 16 -22 22 -14 12
21 -27 8 -21 -20 9 -13 14 -18 23 -11 19 22 -13 12 10 -15 35 l-28 24 20 -25
20 -25 -22 18 c-12 11 -20 24 -17 31 3 7 -6 21 -18 32 -18 15 -20 15 -9 2 19
-25 8 -22 -15 4 -10 12 -13 18 -6 14 21 -12 13 10 -10 30 -22 19 -23 19 -8 -1
14 -18 14 -19 -2 -6 -10 7 -15 17 -12 22 5 9 -81 129 -93 129 -3 0 1 -8 8 -17
13 -16 12 -17 -3 -5 -9 8 -15 19 -12 26 3 7 -3 19 -13 27 -17 13 -17 13 -3 -6
14 -18 14 -19 -2 -7 -9 8 -15 19 -12 26 3 7 -3 19 -13 27 -17 13 -17 13 -3 -6
14 -19 14 -19 -2 -6 -10 7 -15 17 -12 22 5 8 -102 169 -113 169 -2 0 5 -15 17
-32 l22 -33 -25 29 c-14 16 -23 35 -20 42 2 6 -1 15 -8 20 -8 5 -10 3 -4 -6 5
-9 4 -11 -4 -6 -6 4 -9 11 -6 16 5 8 -62 120 -72 120 -2 0 -1 -5 3 -12 4 -7 3
-8 -4 -4 -6 4 -9 13 -6 20 3 8 0 17 -7 22 -8 5 -10 3 -4 -6 5 -8 4 -11 -3 -6
-6 4 -9 13 -6 20 3 8 0 17 -7 22 -8 5 -10 3 -4 -6 5 -9 4 -11 -4 -6 -6 4 -9
11 -6 16 8 13 -14 52 -25 45 -6 -3 -7 0 -4 8 3 8 0 18 -7 23 -8 5 -10 3 -4 -6
5 -9 4 -11 -4 -6 -6 4 -9 11 -6 17 3 5 -17 47 -46 94 -50 82 -71 109 -49 63
11 -22 10 -22 -4 -4 -9 10 -13 23 -10 27 8 14 -26 70 -38 63 -7 -4 -8 -3 -4 4
4 7 -9 41 -29 77 -37 65 -59 92 -30 35 9 -16 13 -30 10 -30 -2 0 -14 18 -26
41 -11 23 -15 38 -8 34 6 -4 -5 24 -26 64 -21 39 -39 70 -42 68 -2 -2 8 -25
23 -50 14 -26 23 -47 20 -47 -3 0 -16 19 -28 42 -32 60 -40 80 -28 73 13 -8
13 1 -1 26 -5 11 -14 17 -18 15 -4 -3 -13 6 -20 20 -6 14 -7 23 -1 19 6 -4 7
2 1 17 -5 13 -14 22 -20 20 -6 -1 -12 1 -12 5 -1 5 -3 21 -5 37 -2 16 -8 34
-14 40 -8 8 -9 6 -4 -9 9 -25 1 -18 -16 14 -8 15 -8 21 -1 17 16 -10 13 4 -10
44 -18 31 -19 25 -1 -20 3 -8 2 -13 -1 -9 -11 9 -38 81 -28 75 5 -3 7 3 4 14
-3 11 -9 23 -14 26 -5 3 -6 -3 -3 -13 3 -10 -4 -1 -16 20 -12 22 -19 45 -16
53 3 8 2 13 -3 10 -4 -3 -13 6 -20 20 -16 35 -13 44 4 14 20 -35 19 -18 -2 24
-9 19 -20 33 -24 31 -8 -6 -42 75 -34 83 3 3 5 -1 5 -8 0 -7 2 -11 5 -8 9 8
-6 38 -16 32 -5 -3 -9 -3 -9 -1 0 3 -7 21 -16 42 -8 20 -11 34 -5 31 5 -4 7 3
3 16 -3 14 -7 17 -10 9 -5 -14 -22 20 -36 70 -6 18 -5 20 3 9 12 -17 14 -10 5
14 -3 9 -10 14 -14 11 -8 -5 -45 83 -37 91 2 3 8 -7 11 -22 4 -14 9 -24 12
-22 7 8 -17 68 -26 63 -13 -8 -122 331 -115 357 5 17 4 19 -3 9 -8 -11 -13 -4
-22 30 -6 24 -17 64 -25 89 -40 128 -94 371 -90 402 4 26 3 29 -4 13 -5 -11
-10 -17 -10 -13 -1 5 -14 74 -30 156 -59 297 -102 620 -121 907 -18 276 -8
1055 11 900 4 -28 5 -10 2 40 -5 120 60 663 67 560 2 -25 3 -26 7 -7 3 13 0
29 -6 36 -9 10 -5 49 14 147 14 74 30 143 35 154 10 22 90 335 95 375 5 34 45
163 55 175 4 6 16 36 26 67 15 50 19 55 30 40 11 -14 12 -12 2 14 -10 28 -7
43 21 120 57 151 58 154 99 154 40 0 39 9 -1 12 -25 2 -25 2 -10 38 8 19 21
52 30 72 8 21 18 36 22 33 4 -2 15 12 24 31 21 42 22 59 2 24 -20 -35 -19 -18
2 24 9 19 20 33 24 31 4 -3 5 3 2 14 -5 19 76 199 118 262 13 20 30 45 37 55
7 11 5 5 -3 -13 -23 -48 -17 -54 7 -8 12 22 23 53 25 70 5 45 140 273 156 264
10 -6 108 144 102 158 -2 7 1 15 7 19 7 5 8 2 3 -6 -5 -9 -4 -11 4 -6 7 4 10
13 8 19 -4 12 49 97 60 97 3 0 2 -6 -3 -13 -5 -7 1 -1 14 13 12 14 20 30 18
37 -3 6 3 17 12 25 16 12 16 11 2 -7 -14 -19 -14 -19 3 -6 10 8 16 20 13 27
-3 7 3 18 12 26 16 12 16 11 2 -7 -14 -19 -14 -19 3 -6 10 8 16 20 13 27 -3 7
0 16 6 20 7 5 8 2 3 -7 -8 -12 -6 -12 8 0 18 14 24 36 7 26 -18 -11 -11 1 12
21 22 19 23 19 8 -1 -14 -19 -14 -19 3 -6 10 8 16 20 13 27 -3 7 3 18 12 26
15 11 16 11 7 -2 -5 -9 2 -2 17 14 14 17 24 34 21 39 -6 11 12 37 87 127 35
41 69 75 76 75 19 0 65 47 60 61 -3 7 5 20 17 31 l22 18 -20 -25 -20 -25 22
19 c13 10 20 22 18 27 -11 17 198 238 229 243 9 1 29 15 45 30 18 18 34 25 43
21 10 -6 11 -5 1 6 -11 11 -19 7 -50 -22 -34 -31 -33 -29 7 16 48 54 221 217
258 242 21 15 24 14 37 -3 12 -15 14 -15 9 -3 -3 12 6 26 30 44 19 14 33 32
30 39 -5 13 177 164 235 196 29 16 99 70 137 105 48 44 236 167 248 162 7 -3
32 7 56 23 24 16 50 26 59 23 14 -4 14 -3 1 6 -11 7 -21 6 -37 -4 -13 -8 -35
-22 -50 -31 l-28 -16 25 19 c13 10 49 37 80 59 94 70 240 156 255 150 14 -5
85 29 85 41 0 3 -16 -5 -36 -16 -20 -12 -38 -20 -40 -18 -8 7 127 77 138 71 6
-4 8 -3 4 4 -3 6 7 20 24 32 35 25 554 284 683 341 84 37 118 49 88 30 -10 -7
-7 -9 12 -8 28 2 36 12 15 19 -24 8 93 63 312 144 41 15 77 30 80 34 12 16
518 184 800 265 69 20 134 41 146 46 47 23 217 68 203 54z m12746 -11345 c99
-6 232 -15 295 -20 63 -6 151 -13 195 -16 44 -3 125 -13 180 -21 55 -8 141
-18 190 -22 50 -5 137 -16 195 -25 338 -54 582 -90 790 -117 205 -27 290 -42
260 -48 l-25 -4 25 -7 c14 -4 34 -1 45 6 15 8 44 9 110 3 50 -5 160 -13 245
-19 85 -5 190 -14 232 -18 43 -5 111 -7 150 -4 48 3 70 1 63 -5 -23 -22 -168
-133 -175 -133 -3 0 -42 -27 -85 -59 -48 -36 -85 -57 -94 -53 -9 3 -13 2 -9
-3 11 -11 -11 -35 -26 -29 -7 3 -19 -3 -27 -13 -13 -17 -13 -17 6 -3 l20 15
-20 -24 c-18 -21 -121 -98 -270 -203 -35 -25 -56 -33 -63 -26 -6 6 -12 6 -17
-3 -6 -8 -4 -10 6 -5 8 4 3 -2 -11 -13 -14 -11 -30 -19 -37 -16 -7 2 -15 -1
-19 -7 -5 -7 -2 -8 7 -3 12 8 12 6 0 -8 -15 -19 -36 -23 -25 -5 4 7 3 8 -5 4
-6 -4 -9 -11 -6 -15 2 -5 -21 -25 -53 -46 -31 -22 -68 -48 -82 -60 -32 -28
-277 -185 -287 -185 -15 0 -238 -142 -246 -156 -4 -8 -12 -14 -17 -14 -4 0
-44 -21 -87 -47 -43 -25 -139 -77 -213 -116 -74 -38 -155 -84 -180 -102 -25
-18 -55 -36 -67 -39 -13 -4 -23 -12 -23 -17 0 -5 -6 -9 -14 -9 -8 0 -42 -16
-76 -35 -34 -19 -68 -35 -76 -35 -8 0 -55 -20 -105 -45 -49 -25 -95 -43 -102
-39 -7 4 -9 4 -5 -1 4 -4 1 -13 -5 -20 -16 -15 -245 -125 -262 -125 -14 0
-187 -74 -218 -94 -28 -18 -195 -83 -307 -120 -47 -16 -99 -36 -116 -46 -31
-18 -218 -83 -244 -86 -22 -2 -176 -52 -197 -64 -23 -12 -190 -62 -224 -66
-35 -4 -179 -44 -198 -55 -23 -13 -173 -48 -227 -54 -26 -3 -52 -9 -58 -15
-12 -12 -59 -13 -52 -1 3 5 -3 11 -13 14 -12 3 -22 -1 -25 -9 -3 -8 0 -14 7
-14 48 -2 -179 -57 -270 -66 -26 -2 -77 -11 -113 -19 -123 -29 -215 -46 -253
-46 -21 0 -73 -7 -115 -15 -142 -28 -186 -34 -277 -39 -49 -3 -127 -12 -172
-21 -44 -8 -143 -17 -219 -20 -76 -2 -157 -9 -179 -14 -23 -5 -108 -9 -189 -9
-81 0 -151 -3 -155 -6 -14 -8 -535 -9 -554 0 -11 4 -67 5 -127 1 -59 -3 -140
-2 -181 4 -41 5 -139 12 -219 14 -80 3 -161 10 -180 15 -19 5 -95 12 -169 15
-74 4 -139 11 -146 16 -6 5 -72 14 -146 20 -73 6 -156 17 -184 24 -27 8 -77
17 -110 21 -119 12 -225 28 -225 35 0 6 -35 12 -225 41 -38 6 -85 18 -104 25
-18 8 -43 14 -55 14 -15 0 -17 3 -8 9 11 7 10 10 -3 15 -25 9 -37 7 -29 -5 10
-18 -89 -3 -185 27 -12 4 188 126 204 124 3 0 19 7 36 16 17 8 28 11 25 5 -4
-7 -1 -9 8 -5 9 3 14 10 13 15 -1 5 34 33 79 62 44 28 147 96 227 150 80 53
148 97 152 97 9 0 211 137 247 168 29 25 92 71 285 205 29 21 57 37 62 37 5 0
11 4 13 8 7 19 704 502 723 502 4 0 13 6 20 14 27 26 460 289 620 377 80 43
446 225 515 256 30 13 111 47 180 74 69 28 141 57 160 66 51 23 419 143 441
143 10 0 20 4 23 9 3 5 16 11 28 14 13 2 113 28 224 55 182 46 390 89 549 112
33 5 74 11 90 14 78 14 372 46 470 52 61 4 151 10 200 13 147 12 676 12 870 1z
m-8100 -3177 c10 -52 7 -215 -6 -293 -14 -92 -38 -172 -49 -165 -6 4 -10 4
-10 1 0 -2 -3 -13 -6 -23 -5 -15 -4 -16 6 -3 9 12 10 10 4 -10 -8 -31 -53
-120 -59 -120 -3 0 4 18 15 40 11 21 20 43 20 47 -1 4 -12 -14 -26 -40 -14
-26 -22 -53 -18 -59 4 -7 3 -8 -4 -4 -12 7 -36 -29 -28 -43 3 -5 -2 -15 -12
-22 -16 -13 -16 -13 -2 6 14 19 14 19 -3 6 -10 -8 -16 -20 -13 -26 6 -16 -119
-139 -132 -131 -5 3 -16 -2 -23 -12 -13 -16 -12 -16 6 -2 20 15 20 14 1 -8
-15 -17 -22 -19 -28 -10 -7 12 -12 5 -10 -13 2 -11 -138 -76 -213 -99 -50 -16
-107 -23 -200 -27 -71 -3 -127 -2 -123 2 4 4 51 7 105 6 115 -2 123 6 11 10
-43 2 -74 6 -70 9 37 32 143 97 127 79 l-20 -23 27 20 c14 10 24 21 22 23 -6
6 57 71 69 71 4 0 5 -4 2 -10 -12 -19 2 -10 26 17 l24 28 -25 -20 c-19 -16
-17 -11 8 20 73 89 106 147 123 218 17 65 17 74 3 95 -27 40 -79 56 -149 44
l-60 -11 58 5 c60 6 117 -7 137 -31 7 -8 -4 -5 -27 6 -56 29 -128 19 -393 -58
-303 -88 -489 -140 -582 -162 l-77 -18 -20 46 c-35 81 -44 137 -38 234 6 107
40 214 81 252 14 13 27 30 28 37 0 7 2 18 2 25 1 13 75 113 83 113 3 0 0 -6
-6 -13 -9 -12 8 -15 96 -20 58 -4 156 -8 217 -9 l111 -2 -135 -6 -135 -6 132
-2 c72 -1 134 1 136 6 6 8 345 7 354 -2 4 -3 49 -5 102 -4 l96 2 -100 6 -100
6 95 2 c52 1 133 9 179 16 47 8 90 12 96 9 13 -4 134 11 200 26 81 18 92 15
100 -26z"/>
<path d="M28730 14619 c-19 -6 -48 -12 -63 -14 -16 -2 -31 -7 -35 -11 -4 -4 2
-4 13 0 19 6 19 5 -1 -11 -24 -20 -37 -70 -21 -80 6 -4 7 -1 2 8 -6 11 -5 11
4 3 7 -6 13 -18 14 -26 2 -8 23 -32 47 -53 25 -21 76 -68 115 -104 38 -36 54
-49 35 -27 -19 21 -70 69 -113 107 -42 38 -74 69 -69 69 15 0 222 -202 217
-211 -9 -13 45 -100 57 -93 7 5 9 -3 4 -22 -4 -20 -4 -24 3 -15 15 24 35 -63
35 -159 1 -97 -22 -219 -36 -198 -6 8 -7 1 -3 -21 5 -23 4 -31 -4 -27 -6 4
-11 5 -11 2 0 -2 -3 -12 -7 -22 -4 -12 -3 -15 5 -10 7 4 12 1 12 -8 0 -20 -17
-29 -24 -14 -3 7 -3 3 -1 -8 6 -25 -33 -137 -45 -129 -9 6 -23 -25 -15 -33 3
-3 5 1 5 8 0 7 2 11 5 8 5 -5 -28 -89 -81 -206 -13 -29 -24 -57 -24 -62 0 -6
-5 -9 -12 -7 -6 1 -13 -7 -15 -18 -3 -16 -2 -17 6 -5 8 11 11 5 11 -27 0 -50
10 -53 70 -23 22 11 43 19 47 18 5 -2 19 5 33 15 13 9 20 17 16 17 -5 0 -17
-6 -26 -12 -19 -15 17 19 83 78 26 23 47 47 47 52 0 6 5 14 12 18 7 5 8 2 3
-7 -12 -21 6 -1 44 48 18 24 30 47 27 52 -4 5 -1 13 5 17 8 5 10 2 5 -7 -4 -8
2 -3 14 10 11 13 18 31 16 38 -3 8 -2 11 4 8 12 -7 33 32 24 47 -4 7 -3 8 4 4
7 -4 25 20 47 63 19 39 35 74 35 78 -1 5 -17 -22 -36 -59 -19 -38 -36 -68 -39
-68 -2 0 16 42 40 93 53 113 78 187 100 296 23 113 17 264 -15 341 -12 30 -23
65 -25 77 -6 44 -90 131 -170 177 -30 17 -30 17 -6 -1 56 -41 63 -52 16 -23
-86 53 -151 72 -255 76 -52 2 -111 -1 -130 -7z"/>
</g>
</svg>
